<?xml version="1.0" standalone="no"?>
<!DOCTYPE svg PUBLIC "-//W3C//DTD SVG 20010904//EN"
 "http://www.w3.org/TR/2001/REC-SVG-20010904/DTD/svg10.dtd">
<svg version="1.0" xmlns="http://www.w3.org/2000/svg"
 width="500.000000pt" height="500.000000pt" viewBox="0 0 500.000000 500.000000"
 preserveAspectRatio="xMidYMid meet">

<g transform="translate(0.000000,500.000000) scale(0.100000,-0.100000)"
fill="#000000" stroke="none">
<path d="M1307 3024 c-4 -4 -7 -49 -7 -100 l0 -93 -97 -3 -98 -3 -3 -104 c-2
-77 1 -107 10 -113 7 -4 52 -8 100 -8 l87 0 3 -97 3 -98 110 0 110 0 3 98 3
97 87 0 c48 0 93 4 100 8 9 6 12 36 10 113 l-3 104 -97 3 -97 3 -3 97 -3 97
-106 3 c-58 1 -108 -1 -112 -4z m163 -121 c0 -128 -4 -123 111 -123 l99 0 0
-60 0 -60 -95 0 c-114 0 -115 -1 -115 -124 l0 -86 -55 0 -55 0 0 86 c0 123 -1
124 -115 124 l-95 0 0 60 0 60 99 0 c81 0 100 3 105 16 3 9 6 54 6 100 l0 84
55 0 55 0 0 -77z"/>
<path d="M3367 2890 c-82 -15 -127 -77 -127 -175 0 -78 31 -143 80 -168 49
-25 158 -20 197 9 47 35 65 77 65 153 1 136 -81 205 -215 181z m83 -80 c25
-13 43 -82 35 -130 -8 -47 -35 -73 -77 -73 -47 0 -68 32 -68 105 0 49 4 63 25
83 26 27 54 31 85 15z"/>
<path d="M1850 2710 l0 -180 45 0 45 0 0 59 0 58 46 6 c59 6 95 33 113 84 13
35 13 46 0 79 -21 56 -62 74 -166 74 l-83 0 0 -180z m158 72 c5 -30 -14 -52
-44 -52 -21 0 -24 5 -24 41 0 39 1 40 33 37 25 -2 33 -8 35 -26z"/>
<path d="M2191 2722 c-30 -92 -56 -173 -58 -180 -4 -10 8 -12 48 -10 50 3 53
4 61 36 l9 33 61 -3 c60 -3 62 -4 70 -35 8 -32 11 -33 58 -33 28 0 50 3 50 7
0 4 -26 85 -57 180 l-58 173 -65 0 -65 -1 -54 -167z m159 -34 c0 -5 -18 -8
-39 -8 l-39 0 14 58 c23 90 25 91 45 22 10 -36 18 -68 19 -72z"/>
<path d="M2540 2710 l0 -180 45 0 45 0 0 65 c0 51 3 65 15 65 8 0 31 -29 52
-65 l37 -65 54 0 c60 0 61 -6 -6 88 l-44 64 28 29 c23 24 29 40 29 74 0 77
-48 105 -182 105 l-73 0 0 -180z m148 98 c18 -18 14 -56 -7 -68 -40 -21 -51
-13 -51 35 0 40 2 45 23 45 13 0 28 -5 35 -12z"/>
<path d="M2880 2710 l0 -183 94 5 c75 4 102 10 131 28 99 61 101 248 3 305
-25 15 -57 20 -130 23 l-98 4 0 -182z m180 80 c15 -15 20 -33 20 -74 0 -69
-26 -106 -76 -106 l-34 0 0 100 0 100 35 0 c22 0 43 -8 55 -20z"/>
<path d="M3720 2868 c-55 -36 -82 -100 -77 -175 8 -111 61 -163 164 -163 80 0
103 12 103 56 0 35 0 36 -32 28 -104 -26 -142 4 -136 105 3 52 8 67 28 83 24
19 67 20 113 2 19 -7 43 54 27 70 -6 6 -43 12 -83 14 -62 3 -77 1 -107 -20z"/>
</g>
</svg>
